<svg xmlns="http://www.w3.org/2000/svg" viewBox="0 0 640 260" role="img" aria-labelledby="title desc">
  <title id="title">Decorative Muslim city skyline</title>
  <desc id="desc">A soft vector skyline with domes, minarets, trees, clouds, and birds.</desc>
  <defs>
    <linearGradient id="g" x1="0" y1="0" x2="1" y2="1">
      <stop offset="0" stop-color="#b9eadc" stop-opacity=".72"/>
      <stop offset="1" stop-color="#6bc6b1" stop-opacity=".38"/>
    </linearGradient>
    <linearGradient id="ground" x1="0" y1="0" x2="0" y2="1">
      <stop offset="0" stop-color="#dff4ed" stop-opacity=".76"/>
      <stop offset="1" stop-color="#a4ddce" stop-opacity=".28"/>
    </linearGradient>
  </defs>
  <g fill="none" stroke="#5ab69f" stroke-linecap="round" stroke-width="3" opacity=".36">
    <path d="M64 54c15-12 30-12 45 0"/>
    <path d="M80 52c6-6 12-6 18 0"/>
    <path d="M476 37c12-9 24-9 36 0"/>
  </g>
  <g fill="#dff4ed" opacity=".58">
    <ellipse cx="116" cy="84" rx="56" ry="18"/>
    <ellipse cx="510" cy="73" rx="72" ry="22"/>
  </g>
  <path d="M0 210c78-26 148-21 220-6 83 17 164 2 247-14 72-14 125-12 173 7v63H0z" fill="url(#ground)"/>
  <g fill="url(#g)">
    <rect x="62" y="148" width="52" height="74" rx="4"/>
    <path d="M64 148h48l-24-25z"/>
    <rect x="142" y="127" width="88" height="96" rx="5"/>
    <path d="M151 127c0-30 70-30 70 0z"/>
    <rect x="172" y="102" width="28" height="33"/>
    <path d="M174 102c0-17 24-17 24 0z"/>
    <rect x="254" y="103" width="34" height="120" rx="3"/>
    <path d="M260 103l11-35 11 35z"/>
    <circle cx="271" cy="63" r="4"/>
    <rect x="318" y="139" width="112" height="84" rx="5"/>
    <path d="M326 139c0-42 96-42 96 0z"/>
    <rect x="360" y="106" width="30" height="42"/>
    <path d="M362 106c0-20 26-20 26 0z"/>
    <rect x="454" y="118" width="31" height="105" rx="3"/>
    <path d="M459 118l10-42 10 42z"/>
    <circle cx="469" cy="72" r="4"/>
    <rect x="510" y="155" width="66" height="68" rx="4"/>
    <path d="M514 155c0-27 58-27 58 0z"/>
  </g>
  <g fill="#78c8b4" opacity=".5">
    <circle cx="40" cy="192" r="22"/><rect x="36" y="192" width="8" height="31" rx="4"/>
    <circle cx="596" cy="188" r="24"/><rect x="592" y="188" width="8" height="35" rx="4"/>
    <circle cx="236" cy="199" r="18"/><rect x="232" y="199" width="8" height="24" rx="4"/>
  </g>
  <g fill="#4ba88f" opacity=".36">
    <rect x="154" y="164" width="12" height="18" rx="6"/>
    <rect x="178" y="164" width="12" height="18" rx="6"/>
    <rect x="202" y="164" width="12" height="18" rx="6"/>
    <rect x="336" y="172" width="13" height="20" rx="6"/>
    <rect x="360" y="172" width="13" height="20" rx="6"/>
    <rect x="384" y="172" width="13" height="20" rx="6"/>
  </g>
</svg>
